<?xml version="1.0" encoding="UTF-8" ?><svg viewBox="0 0 40 26" xmlns="http://www.w3.org/2000/svg"><line x1="1" y1="1" x2="29" y2="1" stroke="#666666" stroke-width="2"></line><line x1="1" y1="1" x2="1" y2="8" stroke="#666666" stroke-width="2"></line><circle cx="1" cy="1" r="1" fill="yellow"></circle><circle cx="8" cy="1" r="1" fill="yellow"></circle><circle cx="15" cy="1" r="1" fill="yellow"></circle><circle cx="22" cy="1" r="1" fill="yellow"></circle><circle cx="29" cy="1" r="1" fill="yellow"></circle><line x1="1" y1="8" x2="29" y2="8" stroke="#666666" stroke-width="2"></line><line x1="29" y1="8" x2="29" y2="15" stroke="#666666" stroke-width="2"></line><circle cx="1" cy="8" r="1" fill="yellow"></circle><circle cx="8" cy="8" r="1" fill="yellow"></circle><circle cx="15" cy="8" r="1" fill="yellow"></circle><circle cx="22" cy="8" r="1" fill="yellow"></circle><circle cx="29" cy="8" r="1" fill="yellow"></circle><line x1="1" y1="15" x2="29" y2="15" stroke="#666666" stroke-width="2"></line><circle cx="1" cy="15" r="1" fill="yellow"></circle><circle cx="8" cy="15" r="1" fill="yellow"></circle><circle cx="15" cy="15" r="1" fill="yellow"></circle><circle cx="22" cy="15" r="1" fill="yellow"></circle><circle cx="29" cy="15" r="1" fill="yellow"></circle></svg>